<mxfile host="app.diagrams.net" agent="Mozilla/5.0 (X11; Linux x86_64) AppleWebKit/537.36 (KHTML, like Gecko) Chrome/120.0.0.0 YaBrowser/24.1.0.0 Safari/537.36" version="24.7.12">
  <diagram name="Страница — 1" id="OnwutUYI9p5dCqGEDK0g">
    <mxGraphModel dx="779" dy="2797" grid="1" gridSize="10" guides="1" tooltips="1" connect="1" arrows="1" fold="1" page="1" pageScale="1" pageWidth="827" pageHeight="1169" math="0" shadow="0">
      <root>
        <mxCell id="0" />
        <mxCell id="1" parent="0" />
        <mxCell id="hdozPCG_o9sLp28U2G6--2" value="&lt;font style=&quot;font-size: 16px;&quot;&gt;Animal&lt;/font&gt;" style="rounded=0;whiteSpace=wrap;html=1;" vertex="1" parent="1">
          <mxGeometry x="270" y="-2330" width="290" height="40" as="geometry" />
        </mxCell>
        <mxCell id="hdozPCG_o9sLp28U2G6--3" value="&lt;font style=&quot;font-size: 16px;&quot;&gt;Pack Animals&lt;/font&gt;" style="rounded=0;whiteSpace=wrap;html=1;" vertex="1" parent="1">
          <mxGeometry x="180" y="-2260" width="234" height="40" as="geometry" />
        </mxCell>
        <mxCell id="hdozPCG_o9sLp28U2G6--4" value="&lt;font style=&quot;font-size: 16px;&quot;&gt;Pets&lt;/font&gt;" style="rounded=0;whiteSpace=wrap;html=1;" vertex="1" parent="1">
          <mxGeometry x="440" y="-2260" width="190" height="40" as="geometry" />
        </mxCell>
        <mxCell id="hdozPCG_o9sLp28U2G6--15" style="edgeStyle=orthogonalEdgeStyle;rounded=0;orthogonalLoop=1;jettySize=auto;html=1;entryX=0.094;entryY=1.002;entryDx=0;entryDy=0;entryPerimeter=0;" edge="1" parent="1" source="hdozPCG_o9sLp28U2G6--3" target="hdozPCG_o9sLp28U2G6--2">
          <mxGeometry relative="1" as="geometry" />
        </mxCell>
        <mxCell id="hdozPCG_o9sLp28U2G6--33" style="edgeStyle=orthogonalEdgeStyle;rounded=0;orthogonalLoop=1;jettySize=auto;html=1;" edge="1" parent="1" source="hdozPCG_o9sLp28U2G6--16">
          <mxGeometry relative="1" as="geometry">
            <mxPoint x="199" y="-2220" as="targetPoint" />
          </mxGeometry>
        </mxCell>
        <mxCell id="hdozPCG_o9sLp28U2G6--16" value="&lt;font style=&quot;font-size: 16px;&quot;&gt;Camel&lt;/font&gt;" style="rounded=0;whiteSpace=wrap;html=1;" vertex="1" parent="1">
          <mxGeometry x="164" y="-2190" width="70" height="40" as="geometry" />
        </mxCell>
        <mxCell id="hdozPCG_o9sLp28U2G6--32" style="edgeStyle=orthogonalEdgeStyle;rounded=0;orthogonalLoop=1;jettySize=auto;html=1;" edge="1" parent="1" source="hdozPCG_o9sLp28U2G6--17">
          <mxGeometry relative="1" as="geometry">
            <mxPoint x="290" y="-2220" as="targetPoint" />
          </mxGeometry>
        </mxCell>
        <mxCell id="hdozPCG_o9sLp28U2G6--17" value="&lt;font style=&quot;font-size: 16px;&quot;&gt;Donkey&lt;/font&gt;" style="rounded=0;whiteSpace=wrap;html=1;" vertex="1" parent="1">
          <mxGeometry x="250" y="-2190" width="80" height="40" as="geometry" />
        </mxCell>
        <mxCell id="hdozPCG_o9sLp28U2G6--31" style="edgeStyle=orthogonalEdgeStyle;rounded=0;orthogonalLoop=1;jettySize=auto;html=1;" edge="1" parent="1" source="hdozPCG_o9sLp28U2G6--18">
          <mxGeometry relative="1" as="geometry">
            <mxPoint x="379" y="-2220" as="targetPoint" />
          </mxGeometry>
        </mxCell>
        <mxCell id="hdozPCG_o9sLp28U2G6--18" value="&lt;font style=&quot;font-size: 16px;&quot;&gt;Horse&lt;/font&gt;" style="rounded=0;whiteSpace=wrap;html=1;" vertex="1" parent="1">
          <mxGeometry x="344" y="-2190" width="70" height="40" as="geometry" />
        </mxCell>
        <mxCell id="hdozPCG_o9sLp28U2G6--30" style="edgeStyle=orthogonalEdgeStyle;rounded=0;orthogonalLoop=1;jettySize=auto;html=1;" edge="1" parent="1" source="hdozPCG_o9sLp28U2G6--19">
          <mxGeometry relative="1" as="geometry">
            <mxPoint x="465" y="-2220" as="targetPoint" />
          </mxGeometry>
        </mxCell>
        <mxCell id="hdozPCG_o9sLp28U2G6--19" value="&lt;font style=&quot;font-size: 16px;&quot;&gt;Cat&lt;/font&gt;" style="rounded=0;whiteSpace=wrap;html=1;" vertex="1" parent="1">
          <mxGeometry x="440" y="-2190" width="50" height="40" as="geometry" />
        </mxCell>
        <mxCell id="hdozPCG_o9sLp28U2G6--28" style="edgeStyle=orthogonalEdgeStyle;rounded=0;orthogonalLoop=1;jettySize=auto;html=1;" edge="1" parent="1" source="hdozPCG_o9sLp28U2G6--20">
          <mxGeometry relative="1" as="geometry">
            <mxPoint x="529" y="-2220" as="targetPoint" />
          </mxGeometry>
        </mxCell>
        <mxCell id="hdozPCG_o9sLp28U2G6--20" value="&lt;font style=&quot;font-size: 16px;&quot;&gt;Dog&lt;/font&gt;" style="rounded=0;whiteSpace=wrap;html=1;" vertex="1" parent="1">
          <mxGeometry x="504" y="-2190" width="50" height="40" as="geometry" />
        </mxCell>
        <mxCell id="hdozPCG_o9sLp28U2G6--21" value="&lt;font style=&quot;font-size: 16px;&quot;&gt;Hamster&lt;/font&gt;" style="rounded=0;whiteSpace=wrap;html=1;" vertex="1" parent="1">
          <mxGeometry x="570" y="-2190" width="80" height="40" as="geometry" />
        </mxCell>
        <mxCell id="hdozPCG_o9sLp28U2G6--27" style="edgeStyle=orthogonalEdgeStyle;rounded=0;orthogonalLoop=1;jettySize=auto;html=1;entryX=0.914;entryY=1;entryDx=0;entryDy=0;entryPerimeter=0;" edge="1" parent="1" source="hdozPCG_o9sLp28U2G6--4" target="hdozPCG_o9sLp28U2G6--2">
          <mxGeometry relative="1" as="geometry" />
        </mxCell>
        <mxCell id="hdozPCG_o9sLp28U2G6--29" style="edgeStyle=orthogonalEdgeStyle;rounded=0;orthogonalLoop=1;jettySize=auto;html=1;entryX=0.895;entryY=1;entryDx=0;entryDy=0;entryPerimeter=0;" edge="1" parent="1" source="hdozPCG_o9sLp28U2G6--21" target="hdozPCG_o9sLp28U2G6--4">
          <mxGeometry relative="1" as="geometry" />
        </mxCell>
      </root>
    </mxGraphModel>
  </diagram>
</mxfile>
